PathFileType	4	(X/Y/Z)	/Users/itak/Documents/Research/Walk-IL/dataset/trc/00522_00183.trc
DataRate	CameraRate	NumFrames	NumMarkers	Units	OrigDataRate	OrigDataStartFrame	OrigNumFrames
100.000000	100.000000	4	54	mm	100.000000	458	524
Frame#	Time	RPSI			LPSI			L3			STRN			T10			C7			CLAV			RBAK			LBAK			LSHO			LUPA			LAEL			LAOL			LWTS			LWPS			LFRA			LIFD			LHPS			LHTS			RSHO			RUPA			RAEL			RAOL			RWTS			RWPS			RFRA			RIFD			RHTS			RHPS			RBHD			LFHD			RFHD			LBHD			LHIP			RHIP			RASI			LASI			LKNE			LTHI			LANK			LTIP			LTOE			LMT1			LMT5			LHEE			RKNE			RANK			RTIP			RTOE			RMT1			RMT5			RHEE			RTHI			*53			
		X1	Y1	Z1	X2	Y2	Z2	X3	Y3	Z3	X4	Y4	Z4	X5	Y5	Z5	X6	Y6	Z6	X7	Y7	Z7	X8	Y8	Z8	X9	Y9	Z9	X10	Y10	Z10	X11	Y11	Z11	X12	Y12	Z12	X13	Y13	Z13	X14	Y14	Z14	X15	Y15	Z15	X16	Y16	Z16	X17	Y17	Z17	X18	Y18	Z18	X19	Y19	Z19	X20	Y20	Z20	X21	Y21	Z21	X22	Y22	Z22	X23	Y23	Z23	X24	Y24	Z24	X25	Y25	Z25	X26	Y26	Z26	X27	Y27	Z27	X28	Y28	Z28	X29	Y29	Z29	X30	Y30	Z30	X31	Y31	Z31	X32	Y32	Z32	X33	Y33	Z33	X34	Y34	Z34	X35	Y35	Z35	X36	Y36	Z36	X37	Y37	Z37	X38	Y38	Z38	X39	Y39	Z39	X40	Y40	Z40	X41	Y41	Z41	X42	Y42	Z42	X43	Y43	Z43	X44	Y44	Z44	X45	Y45	Z45	X46	Y46	Z46	X47	Y47	Z47	X48	Y48	Z48	X49	Y49	Z49	X50	Y50	Z50	X51	Y51	Z51	X52	Y52	Z52	X53	Y53	Z53	X54	Y54	Z54	

459	4.58	374.5686340332031	961.3151245117188	889.9619140625	497.9650268554688	963.6912231445312	892.0586547851562	439.5402526855469	1027.059448242188	876.5838012695312	453.46728515625	1199.37646484375	1092.908935546875	433.033447265625	1132.04736328125	862.3028564453125	432.5671997070312	1363.419921875	902.3661499023438	449.9690856933594	1293.84033203125	1056.142700195312	342.8047485351562	1239.755981445312	866.029052734375	515.6731567382812	1307.4697265625	869.8862915039062	598.0360717773438	1361.061767578125	951.597412109375	657.6137084960938	1235.622192382812	933.1739501953125	691.3311157226562	1027.48681640625	945.6058959960938	610.2312622070312	1013.831359863281	889.32275390625	679.3082885742188	848.939453125	1051.1572265625	703.9060668945312	808.3760986328125	969.5918579101562	700.1995849609375	944.5265502929688	966.9934692382812	693.7509155273438	693.5446166992188	1070.071166992188	712.9796752929688	759.60302734375	998.9190063476562	708.1944580078125	775.8623046875	1062.196899414062	291.1521606445312	1359.615112304688	970.119873046875	232.5498352050781	1293.949096679688	958.0689086914062	179.3087463378906	1030.152954101562	958.2933959960938	219.1114959716797	1010.133544921875	909.3862915039062	195.3309173583984	829.9573364257812	1064.51416015625	154.5523834228516	804.9342651367188	987.6636352539062	170.3141326904297	975.43994140625	961.1361083984375	181.5196990966797	671.2783203125	1071.585327148438	165.4454345703125	740.2177124023438	1080.24462890625	148.4000244140625	735.85009765625	1012.581726074219	337.0547180175781	1508.227294921875	1009.992736816406	517.7496337890625	1593.388061523438	1034.020385742188	412.9691772460938	1574.453735351562	1103.932006835938	461.2060546875	1526.599609375	908.9679565429688	631.5941772460938	893.1070556640625	999.078369140625	248.1553344726562	862.8685913085938	997.495849609375	316.9793395996094	909.1473388671875	1095.241577148438	559.1295166015625	926.0994262695312	1089.34814453125	588.7278442382812	474.0547180175781	1008.697326660156	613.4386596679688	630.1989135742188	1024.846435546875	587.0017700195312	47.83908081054688	894.4181518554688	592.439697265625	326.7628173828125	971.5897216796875	498.41552734375	34.42522811889648	1084.337524414062	477.560302734375	42.26311492919922	1000.792053222656	579.4276733398438	38.79852676391602	1003.436767578125	531.0087280273438	46.94330596923828	841.8148803710938	280.4523620605469	477.5645751953125	979.0645751953125	312.2416381835938	46.49458694458008	906.9097290039062	297.7541198730469	334.5951232910156	972.6676025390625	359.7391662597656	38.63007736206055	1106.930908203125	395.3490600585938	43.34623336791992	1038.058471679688	299.4083862304688	42.25955963134766	1020.269714355469	357.4863891601562	36.65547943115234	853.806640625	248.2630157470703	736.2069702148438	1018.133911132812	nan	nan	nan	
460	4.59	373.5111694335938	961.23486328125	891.0169067382812	496.9446105957031	963.6649169921875	892.5524291992188	438.4055480957031	1027.015869140625	877.0074462890625	453.3936462402344	1199.304565429688	1093.489135742188	431.6946105957031	1131.950927734375	862.908447265625	431.4088134765625	1363.3427734375	902.9613647460938	449.7532958984375	1293.7548828125	1056.75	341.3529357910156	1239.570068359375	867.5582275390625	514.3466796875	1307.29931640625	870.1100463867188	597.10400390625	1360.973999023438	951.300048828125	656.6036987304688	1235.511840820312	932.5748901367188	690.2622680664062	1027.361450195312	945.2836303710938	609.0216064453125	1013.632873535156	889.2362060546875	678.2850341796875	849.1524047851562	1051.278076171875	703.1416625976562	808.4982299804688	969.83349609375	699.1541137695312	944.552490234375	966.8719482421875	693.2891235351562	693.8890380859375	1070.6181640625	712.4554443359375	759.8864135742188	999.30908203125	707.4606323242188	776.1708984375	1062.55810546875	290.3908081054688	1359.51953125	971.6167602539062	231.6856231689453	1293.797729492188	959.9628295898438	178.7538604736328	1029.924926757812	960.552490234375	218.249267578125	1009.976013183594	911.3700561523438	195.6982269287109	829.798095703125	1066.696166992188	154.3812103271484	804.6766967773438	990.1275634765625	169.7773132324219	975.2433471679688	963.4814453125	182.3600311279297	671.04248046875	1073.809936523438	166.1179962158203	739.94091796875	1082.583129882812	148.5587310791016	735.5777587890625	1015.069763183594	336.752685546875	1508.341064453125	1011.424133300781	517.760498046875	1593.199340820312	1033.81103515625	413.7038269042969	1574.461181640625	1104.728515625	459.9815368652344	1526.514282226562	909.2932739257812	631.1357421875	893.2064819335938	999.0201416015625	247.4776916503906	862.5662841796875	998.9518432617188	316.9436645507812	908.9578857421875	1096.363891601562	559.1686401367188	926.089111328125	1089.447509765625	588.6981811523438	474.0726318359375	1008.732788085938	613.3231811523438	630.2014770507812	1024.76220703125	586.9757080078125	47.89224624633789	894.4098510742188	592.3458862304688	326.7988891601562	971.5938110351562	498.4313659667969	34.42822647094727	1084.339233398438	477.5608215332031	42.26251220703125	1000.794311523438	579.4342041015625	38.79499816894531	1003.433532714844	530.9714965820312	46.95157241821289	841.82958984375	280.0283508300781	477.4815979003906	979.4205322265625	312.1814880371094	46.46230697631836	906.9014892578125	297.4995727539062	334.5458068847656	972.7097778320312	359.7323303222656	38.62638473510742	1106.920288085938	395.307861328125	43.37837219238281	1038.057739257812	299.3515014648438	42.23346710205078	1020.2705078125	357.407958984375	36.70396041870117	853.8045654296875	247.9629211425781	736.0054931640625	1019.407287597656	nan	nan	nan	
461	4.600000000000001	372.4994812011719	961.1649780273438	892.0185546875	495.9956665039062	963.639404296875	893.0072021484375	437.2900085449219	1026.968627929688	877.4146728515625	453.3108520507812	1199.233276367188	1094.038940429688	430.4140014648438	1131.838500976562	863.46435546875	430.31494140625	1363.278198242188	903.5029907226562	449.5392456054688	1293.677734375	1057.317626953125	340.014892578125	1239.400634765625	868.943115234375	513.077392578125	1307.125244140625	870.30712890625	596.19873046875	1360.879272460938	951.000732421875	655.5924682617188	1235.381713867188	931.995849609375	689.15966796875	1027.211303710938	944.9706420898438	607.7540893554688	1013.423034667969	889.1726684570312	677.209228515625	849.26708984375	1051.328735351562	702.327880859375	808.617919921875	969.9585571289062	698.0564575195312	944.5189208984375	966.7215576171875	693.1171264648438	694.1410522460938	1070.958862304688	712.0060424804688	760.1913452148438	999.5181884765625	706.7916870117188	776.413818359375	1062.755615234375	289.6807861328125	1359.4296875	973.0154418945312	230.8551330566406	1293.638793945312	961.7567138671875	178.2153167724609	1029.696533203125	962.7322998046875	217.3860473632812	1009.816711425781	913.2866821289062	196.0691986083984	829.6600952148438	1068.814697265625	154.2079467773438	804.4249267578125	992.5221557617188	169.2704620361328	975.050048828125	965.75048828125	183.1610565185547	670.82421875	1075.967041015625	166.7593536376953	739.6767578125	1084.837158203125	148.6911163330078	735.3081665039062	1017.493469238281	336.4879760742188	1508.487426757812	1012.656127929688	517.7579345703125	1592.981079101562	1033.698486328125	414.3080444335938	1574.444213867188	1105.461547851562	458.9192199707031	1526.448364257812	909.6160278320312	630.7154541015625	893.3365478515625	999.0123291015625	246.9056701660156	862.2953491210938	1000.306091308594	316.8421630859375	908.7843017578125	1097.266845703125	559.2105712890625	926.0844116210938	1089.558959960938	588.6666870117188	474.083251953125	1008.777893066406	613.214111328125	630.1989135742188	1024.68994140625	586.9530029296875	47.93399810791016	894.4055786132812	592.2390747070312	326.8276672363281	971.6151123046875	498.4448547363281	34.43053817749023	1084.341674804688	477.5616455078125	42.26256942749023	1000.796264648438	579.4420776367188	38.79113006591797	1003.429870605469	530.93798828125	46.96425247192383	841.8452758789062	279.6359252929688	477.3953552246094	979.8171997070312	312.127197265625	46.43649291992188	906.8953857421875	297.270751953125	334.49267578125	972.7960205078125	359.7247619628906	38.62176895141602	1106.912963867188	395.2689514160156	43.40481567382812	1038.055908203125	299.3058776855469	42.21206665039062	1020.270935058594	357.3226318359375	36.74783325195312	853.80029296875	247.6822814941406	735.8458251953125	1020.663635253906	nan	nan	nan	
462	4.61	371.5371704101562	961.1124877929688	892.9638061523438	495.1067504882812	963.6078491210938	893.4212646484375	436.2007751464844	1026.916625976562	877.8048706054688	453.234375	1199.16259765625	1094.555297851562	429.2017822265625	1131.710083007812	863.9700927734375	429.2916259765625	1363.224365234375	903.9967651367188	449.3231506347656	1293.60888671875	1057.844970703125	338.7779846191406	1239.245483398438	870.1918334960938	511.8673706054688	1306.952270507812	870.472900390625	595.3283081054688	1360.776123046875	950.7030029296875	654.592041015625	1235.23095703125	931.4415893554688	688.0383911132812	1027.038696289062	944.6705932617188	606.445068359375	1013.209106445312	889.130126953125	676.1154174804688	849.2832641601562	1051.311767578125	701.488525390625	808.7294311523438	969.9703979492188	696.9266357421875	944.4342651367188	966.5404663085938	693.1825561523438	694.2935180664062	1071.086181640625	711.6162109375	760.4996337890625	999.5444946289062	706.1871337890625	776.5881958007812	1062.787353515625	289.0144653320312	1359.3388671875	974.323974609375	230.0650329589844	1293.473876953125	963.4458618164062	177.6904296875	1029.470458984375	964.8306274414062	216.5113525390625	1009.654235839844	915.1365356445312	196.4424438476562	829.54296875	1070.870849609375	154.0261077880859	804.1820068359375	994.84619140625	168.8010864257812	974.8584594726562	967.9398193359375	183.91162109375	670.6228637695312	1078.056518554688	167.3637084960938	739.4302368164062	1087.0107421875	148.7842407226562	735.0458984375	1019.851440429688	336.2469177246094	1508.660034179688	1013.702758789062	517.7459716796875	1592.7451171875	1033.671264648438	414.7783203125	1574.410400390625	1106.126342773438	458.0050354003906	1526.397705078125	909.9319458007812	630.3519287109375	893.5090942382812	999.0648193359375	246.4346923828125	862.0241088867188	1001.571838378906	316.6758728027344	908.6019287109375	1097.980712890625	559.2478637695312	926.073974609375	1089.679443359375	588.6307983398438	474.0903930664062	1008.833374023438	613.1058959960938	630.1925048828125	1024.630615234375	586.934326171875	47.96712493896484	894.4035034179688	592.1179809570312	326.8486633300781	971.6557006835938	498.4568786621094	34.43288421630859	1084.344604492188	477.5625610351562	42.2629508972168	1000.798156738281	579.449951171875	38.78914260864258	1003.426208496094	530.9069213867188	46.98143005371094	841.8612060546875	279.2947998046875	477.3072814941406	980.2393798828125	312.0803833007812	46.41808319091797	906.89111328125	297.0451354980469	334.4405212402344	972.9246215820312	359.7177124023438	38.61611938476562	1106.908813476562	395.2341613769531	43.42483139038086	1038.052856445312	299.2714538574219	42.19533157348633	1020.27099609375	357.2334594726562	36.7850341796875	853.7930297851562	247.4239196777344	735.7268676757812	1021.895080566406	nan	nan	nan	
